<svg width="378" height="275" viewBox="0 0 378 275" fill="none" xmlns="http://www.w3.org/2000/svg">
<g clip-path="url(#clip0_4765_10560)">
<path d="M284.815 263.683L285.876 260.338C287.535 260.338 289.29 260.243 291.139 260.052C292.989 259.835 294.824 259.468 296.647 258.951C298.496 258.407 300.251 257.673 301.91 256.748C303.569 255.823 305.024 254.654 306.275 253.239L308.845 254.749C308.6 255.374 308.437 255.878 308.356 256.258C308.274 256.612 308.233 256.938 308.233 257.237C308.233 257.645 308.383 258.04 308.682 258.421C308.981 258.774 309.539 259.073 310.355 259.318C311.198 259.563 312.381 259.685 313.904 259.685C314.475 259.685 314.883 259.849 315.128 260.175C315.4 260.474 315.536 260.841 315.536 261.276C315.536 261.712 315.346 262.12 314.965 262.5C314.584 262.854 314.095 263.031 313.496 263.031C311.755 263.031 310.219 262.854 308.886 262.5C307.58 262.12 306.601 261.535 305.949 260.746C305.323 259.93 305.119 258.883 305.337 257.605L306.071 257.849C304.983 258.829 303.678 259.685 302.154 260.42C300.658 261.127 298.986 261.725 297.136 262.215C295.314 262.704 293.356 263.072 291.261 263.316C289.194 263.561 287.046 263.683 284.815 263.683ZM284.815 263.683C282.395 263.683 280.26 263.52 278.41 263.194C276.588 262.895 275.065 262.419 273.841 261.766C272.617 261.113 271.692 260.27 271.067 259.237C270.441 258.176 270.128 256.897 270.128 255.402C270.128 254.722 270.183 254.028 270.291 253.321C270.4 252.587 270.536 251.852 270.699 251.118C270.89 250.383 271.08 249.676 271.271 248.996L274.33 249.771C274.222 250.179 274.099 250.669 273.963 251.24C273.827 251.784 273.705 252.342 273.596 252.913C273.514 253.484 273.474 254.001 273.474 254.463C273.474 255.878 273.827 257.02 274.534 257.89C275.269 258.733 276.533 259.359 278.329 259.767C280.124 260.148 282.64 260.338 285.876 260.338L286.692 262.378L284.815 263.683ZM287.794 271.435C287.222 271.435 286.733 271.231 286.325 270.823C285.944 270.442 285.754 269.98 285.754 269.436C285.754 268.892 285.944 268.416 286.325 268.008C286.733 267.6 287.222 267.396 287.794 267.396C288.338 267.396 288.8 267.6 289.181 268.008C289.589 268.416 289.793 268.892 289.793 269.436C289.793 269.98 289.589 270.442 289.181 270.823C288.8 271.231 288.338 271.435 287.794 271.435ZM313.487 263.031L313.895 259.685C315.037 259.685 315.935 259.59 316.588 259.4C317.24 259.182 317.73 258.788 318.056 258.217C318.41 257.618 318.709 256.761 318.954 255.646C319.199 254.531 319.498 253.076 319.851 251.281L323.034 251.893C322.925 252.383 322.802 252.926 322.666 253.525C322.53 254.123 322.408 254.722 322.299 255.32C322.218 255.891 322.177 256.394 322.177 256.829C322.177 257.373 322.299 257.863 322.544 258.298C322.789 258.733 323.319 259.073 324.135 259.318C324.951 259.563 326.202 259.685 327.889 259.685C328.46 259.685 328.868 259.849 329.112 260.175C329.384 260.474 329.52 260.841 329.52 261.276C329.52 261.712 329.33 262.12 328.949 262.5C328.568 262.854 328.079 263.031 327.481 263.031C325.713 263.031 324.326 262.881 323.319 262.582C322.313 262.256 321.578 261.78 321.116 261.154C320.654 260.501 320.341 259.713 320.178 258.788L321.402 258.869C320.966 259.74 320.491 260.447 319.974 260.991C319.484 261.535 318.94 261.956 318.342 262.256C317.743 262.555 317.05 262.759 316.261 262.868C315.472 262.976 314.548 263.031 313.487 263.031ZM320.423 270.619C319.851 270.619 319.362 270.415 318.954 270.007C318.573 269.626 318.383 269.164 318.383 268.62C318.383 268.076 318.573 267.6 318.954 267.192C319.362 266.784 319.851 266.58 320.423 266.58C320.966 266.58 321.429 266.784 321.81 267.192C322.218 267.6 322.422 268.076 322.422 268.62C322.422 269.164 322.218 269.626 321.81 270.007C321.429 270.415 320.966 270.619 320.423 270.619ZM356.438 263.031C355.73 263.031 354.833 262.963 353.745 262.827C352.684 262.664 351.596 262.392 350.481 262.011C349.393 261.63 348.468 261.1 347.707 260.42L351.052 258.747C352.004 259.128 352.983 259.386 353.99 259.522C355.023 259.631 355.975 259.685 356.846 259.685C357.417 259.685 357.825 259.849 358.07 260.175C358.342 260.474 358.478 260.841 358.478 261.276C358.478 261.712 358.287 262.12 357.906 262.5C357.526 262.854 357.036 263.031 356.438 263.031ZM327.471 263.031L327.879 259.685H336.406C338.772 259.685 340.812 259.59 342.526 259.4C344.266 259.182 345.694 258.869 346.809 258.461C347.925 258.053 348.754 257.537 349.298 256.911C349.842 256.258 350.114 255.497 350.114 254.626C350.114 254.164 349.964 253.661 349.665 253.117C349.366 252.573 348.904 252.111 348.278 251.73C347.653 251.322 346.823 251.118 345.789 251.118C344.484 251.118 343.178 251.458 341.873 252.138C340.595 252.818 339.371 253.674 338.201 254.708C337.059 255.714 336.039 256.748 335.141 257.809C334.244 258.869 333.523 259.794 332.979 260.583L329.43 260.46C330.3 259.046 331.333 257.605 332.53 256.136C333.754 254.64 335.087 253.266 336.528 252.015C337.997 250.737 339.534 249.717 341.139 248.956C342.743 248.167 344.375 247.772 346.034 247.772C347.53 247.772 348.808 248.085 349.869 248.711C350.957 249.309 351.787 250.125 352.358 251.159C352.956 252.192 353.255 253.362 353.255 254.667C353.255 255.946 352.793 257.237 351.868 258.543C350.944 259.821 349.352 260.828 347.095 261.562C345.953 261.943 344.647 262.242 343.178 262.46C341.71 262.677 340.037 262.827 338.16 262.908C336.284 262.99 334.148 263.031 331.755 263.031H327.471ZM331.347 258.992L330.531 233.697H333.836L334.652 256.136L331.347 258.992ZM356.436 263.031L356.844 259.685C357.606 259.685 358.245 259.522 358.762 259.196C359.278 258.869 359.781 258.325 360.271 257.564C360.761 256.802 361.291 255.782 361.862 254.504C362.651 252.763 363.426 251.444 364.188 250.547C364.976 249.649 365.752 249.037 366.513 248.711C367.302 248.384 368.077 248.221 368.839 248.221C369.763 248.221 370.62 248.466 371.409 248.956C372.198 249.418 372.891 250.043 373.489 250.832C374.088 251.621 374.55 252.491 374.877 253.443C375.23 254.368 375.407 255.293 375.407 256.218C375.407 257.849 375.121 259.155 374.55 260.134C373.979 261.086 373.245 261.78 372.347 262.215C371.477 262.623 370.566 262.827 369.614 262.827C368.771 262.827 367.683 262.664 366.35 262.337C365.044 262.011 363.385 261.181 361.373 259.849L362.964 257.278C364.296 258.121 365.493 258.706 366.554 259.033C367.642 259.332 368.539 259.481 369.247 259.481C370.035 259.481 370.661 259.373 371.123 259.155C371.586 258.91 371.926 258.57 372.143 258.135C372.361 257.7 372.47 257.21 372.47 256.666C372.47 255.878 372.279 255.089 371.898 254.3C371.518 253.511 371.028 252.859 370.43 252.342C369.858 251.825 369.247 251.567 368.594 251.567C368.104 251.567 367.628 251.703 367.166 251.975C366.703 252.247 366.227 252.75 365.738 253.484C365.248 254.218 364.691 255.279 364.065 256.666C363.412 258.135 362.787 259.305 362.189 260.175C361.617 261.018 361.033 261.644 360.434 262.052C359.836 262.46 359.21 262.718 358.558 262.827C357.932 262.963 357.225 263.031 356.436 263.031Z" fill="#F2F2F2"/>
<path d="M13.1361 263.784H2.00581V256.908H4.21536V241.936H1.94386V235.06H19.2692L23.5024 246.149L27.8389 235.06H45.061V241.936H42.8101V256.908H45.1229V263.784H30.1311V256.908H32.4232V240.863L23.7502 263.784H19.455L10.8646 241.069V256.908H13.1361V263.784ZM50.2648 250.052H47.8487V243.754H60.6517V253.294C60.6517 254.904 60.8031 255.985 61.106 256.536C61.3951 257.1 62.0146 257.382 62.9645 257.382C64.1209 257.382 65.1947 257.073 66.1859 256.453V250.052H63.4394V243.754H76.5728V257.486H78.9888V263.784H66.1859V261.244C63.4463 263.185 60.6448 264.156 57.7813 264.156C55.7301 264.156 53.968 263.502 52.495 262.194C51.0082 260.886 50.2648 258.422 50.2648 254.801V250.052ZM98.1727 256.474V262.628C97.4981 263.082 96.5207 263.481 95.2404 263.825C93.8912 264.183 92.5972 264.362 91.3582 264.362C89.8025 264.362 88.4672 264.107 87.3521 263.598C86.2094 263.075 85.349 262.373 84.7708 261.492C84.4542 260.982 84.2202 260.521 84.0687 260.108C83.9173 259.682 83.8072 259.207 83.7383 258.683C83.642 257.775 83.5938 256.02 83.5938 253.418V250.052H81.0332V243.754H83.5938V240.677L93.9807 235.741V243.754H98.1727V250.052H93.9807V253.934C93.9807 255.2 94.0977 256.047 94.3318 256.474C94.552 256.901 95.0201 257.114 95.736 257.114C96.4105 257.114 97.2228 256.901 98.1727 256.474ZM117.336 258.663V255.008C116.413 254.512 115.436 254.264 114.404 254.264C113.495 254.264 112.772 254.512 112.235 255.008C111.698 255.517 111.43 256.164 111.43 256.949C111.43 257.761 111.705 258.422 112.256 258.931C112.82 259.454 113.467 259.716 114.197 259.716C115.491 259.716 116.537 259.365 117.336 258.663ZM109.551 249.35L101.415 248.524C102.31 246.555 103.755 245.171 105.751 244.373C107.72 243.575 110.625 243.175 114.465 243.175C115.883 243.175 117.15 243.223 118.265 243.32C119.394 243.402 120.399 243.533 121.28 243.712C123.111 244.056 124.467 244.586 125.348 245.302C126.229 246.032 126.842 246.817 127.186 247.656C127.544 248.524 127.723 249.873 127.723 251.704V257.486H130.283V263.784H117.336V262.421C115.546 263.577 113.151 264.156 110.15 264.156C107.327 264.156 105.201 263.536 103.769 262.297C102.323 261.058 101.601 259.592 101.601 257.899C101.601 256.026 102.488 254.491 104.264 253.294C106.027 252.096 108.326 251.497 111.161 251.497C113.75 251.497 115.808 251.835 117.336 252.509V251.91C117.336 250.671 117.246 249.804 117.067 249.308C116.875 248.785 116.448 248.338 115.787 247.966C115.099 247.608 114.3 247.429 113.392 247.429C111.726 247.429 110.446 248.069 109.551 249.35ZM145.502 253.686C145.502 256.701 146.7 258.208 149.095 258.208C151.367 258.208 152.503 256.708 152.503 253.707C152.503 252.275 152.186 251.181 151.553 250.423C150.92 249.68 150.073 249.308 149.013 249.308C147.884 249.308 147.017 249.714 146.411 250.527C145.805 251.366 145.502 252.42 145.502 253.686ZM145.585 263.784H132.575V257.486H135.198V241.358H132.534V235.06H145.585V245.034C147.347 243.932 149.488 243.382 152.007 243.382C155.187 243.382 157.817 244.29 159.895 246.108C161.974 247.925 163.014 250.396 163.014 253.521C163.014 255.063 162.759 256.46 162.249 257.713C161.754 258.966 161.004 260.095 159.999 261.099C158.002 263.137 155.497 264.156 152.482 264.156C149.811 264.156 147.512 263.584 145.585 262.442V263.784ZM178.129 253.686C178.129 256.701 179.327 258.208 181.722 258.208C183.994 258.208 185.13 256.708 185.13 253.707C185.13 252.275 184.813 251.181 184.18 250.423C183.546 249.68 182.7 249.308 181.64 249.308C180.511 249.308 179.644 249.714 179.038 250.527C178.432 251.366 178.129 252.42 178.129 253.686ZM178.212 263.784H165.202V257.486H167.825V241.358H165.161V235.06H178.212V245.034C179.974 243.932 182.115 243.382 184.634 243.382C187.814 243.382 190.444 244.29 192.522 246.108C194.601 247.925 195.64 250.396 195.64 253.521C195.64 255.063 195.386 256.46 194.876 257.713C194.381 258.966 193.631 260.095 192.626 261.099C190.629 263.137 188.124 264.156 185.109 264.156C182.438 264.156 180.139 263.584 178.212 262.442V263.784ZM213.255 263.784H199.068V257.486H201.133V250.052H199.068V243.754H211.52V257.486H213.255V263.784ZM200.266 238.095C200.266 237.008 200.824 236.134 201.939 235.473C203.04 234.812 204.403 234.482 206.027 234.482C207.693 234.482 209.035 234.826 210.054 235.514C211.059 236.216 211.562 237.07 211.562 238.075C211.562 239.162 211.038 240.023 209.992 240.656C208.932 241.303 207.597 241.627 205.986 241.627C204.348 241.627 202.985 241.331 201.897 240.739C200.81 240.16 200.266 239.279 200.266 238.095ZM228.804 253.686C228.804 256.701 230.002 258.208 232.397 258.208C234.669 258.208 235.805 256.708 235.805 253.707C235.805 252.275 235.488 251.181 234.855 250.423C234.221 249.68 233.375 249.308 232.315 249.308C231.186 249.308 230.319 249.714 229.713 250.527C229.107 251.366 228.804 252.42 228.804 253.686ZM228.887 263.784H215.877V257.486H218.5V241.358H215.836V235.06H228.887V245.034C230.649 243.932 232.79 243.382 235.309 243.382C238.489 243.382 241.119 244.29 243.197 246.108C245.276 247.925 246.315 250.396 246.315 253.521C246.315 255.063 246.061 256.46 245.551 257.713C245.056 258.966 244.306 260.095 243.301 261.099C241.304 263.137 238.799 264.156 235.784 264.156C233.113 264.156 230.814 263.584 228.887 262.442V263.784Z" fill="#F2F2F2"/>
<path d="M258.054 228.747V274.065" stroke="#F2F2F2" stroke-width="2.95814" stroke-miterlimit="10"/>
<path d="M164.387 72.4888L199.966 114.89L195.728 118.449L177.938 97.2483L160.981 111.479L178.77 132.679L174.532 136.238L156.743 115.037L139.786 129.268L157.575 150.468L132.136 171.816L114.347 150.616L97.3896 164.846L129.409 203.004L307.485 53.5783L275.466 15.4202L237.308 47.4397L255.097 68.6404L250.859 72.1992L233.07 50.9986L199.15 79.4591L195.591 75.2211L271.912 11.1822L266.737 5.01209C261.735 -0.947469 252.854 -1.72663 246.894 3.27476L164.387 72.4888ZM268.485 50.1668L272.723 46.6079L276.282 50.8459L272.044 54.4048L268.485 50.1668ZM230.327 82.1862L233.886 86.4243L216.928 100.655L213.369 96.4165L230.327 82.1862Z" fill="#F2F2F2"/>
<path d="M160.146 76.0476L174.376 93.0049L93.8166 160.603L88.6414 154.433C83.6401 148.473 84.4192 139.592 90.3788 134.59L160.146 76.0476Z" fill="#F2F2F2"/>
<path d="M213.492 139.632L175.335 171.652L189.565 188.609L227.723 156.589L213.492 139.632Z" fill="#FBB03B"/>
<path d="M171.111 175.222L185.341 192.18L157.971 215.144C152.011 220.145 143.13 219.366 138.128 213.407L132.953 207.236L171.111 175.222Z" fill="#FBB03B"/>
<path d="M311.029 57.8159L316.204 63.986C321.206 69.9456 320.427 78.827 314.467 83.8284L231.986 153.048L217.756 136.09L311.029 57.8159Z" fill="#F2F2F2"/>
</g>
<defs>
<clipPath id="clip0_4765_10560">
<rect width="378" height="274.287" fill="white"/>
</clipPath>
</defs>
</svg>
